<mxfile host="Electron" modified="2024-04-30T09:26:18.623Z" agent="Mozilla/5.0 (X11; Linux x86_64) AppleWebKit/537.36 (KHTML, like Gecko) draw.io/24.2.5 Chrome/120.0.6099.109 Electron/28.1.0 Safari/537.36" etag="zqlWzEBpR5VQ_Z5Y8MRR" version="24.2.5" type="device">
  <diagram name="Pagina-1" id="lLxgpqwXV0-cyRFd8KWd">
    <mxGraphModel dx="1363" dy="823" grid="1" gridSize="10" guides="1" tooltips="1" connect="1" arrows="1" fold="1" page="1" pageScale="1" pageWidth="1169" pageHeight="827" math="0" shadow="0">
      <root>
        <mxCell id="0" />
        <mxCell id="1" parent="0" />
        <mxCell id="XVy98jqLhAhtygX9DMXy-1" value="Utente" style="rounded=0;whiteSpace=wrap;html=1;" parent="1" vertex="1">
          <mxGeometry x="171" y="296" width="80" height="44" as="geometry" />
        </mxCell>
        <mxCell id="XVy98jqLhAhtygX9DMXy-5" value="" style="endArrow=oval;html=1;rounded=0;endFill=0;" parent="1" edge="1">
          <mxGeometry width="50" height="50" relative="1" as="geometry">
            <mxPoint x="171" y="308.93" as="sourcePoint" />
            <mxPoint x="141" y="308.93" as="targetPoint" />
          </mxGeometry>
        </mxCell>
        <mxCell id="XVy98jqLhAhtygX9DMXy-7" value="" style="endArrow=oval;html=1;rounded=0;endFill=1;" parent="1" edge="1">
          <mxGeometry width="50" height="50" relative="1" as="geometry">
            <mxPoint x="171" y="301" as="sourcePoint" />
            <mxPoint x="141" y="301" as="targetPoint" />
          </mxGeometry>
        </mxCell>
        <mxCell id="XVy98jqLhAhtygX9DMXy-8" value="Nickname" style="text;html=1;align=center;verticalAlign=middle;whiteSpace=wrap;rounded=0;" parent="1" vertex="1">
          <mxGeometry x="78" y="293" width="60" height="10" as="geometry" />
        </mxCell>
        <mxCell id="XVy98jqLhAhtygX9DMXy-9" value="Nome" style="text;html=1;align=center;verticalAlign=middle;whiteSpace=wrap;rounded=0;" parent="1" vertex="1">
          <mxGeometry x="88" y="303" width="60" height="10" as="geometry" />
        </mxCell>
        <mxCell id="XVy98jqLhAhtygX9DMXy-10" value="Cognome" style="text;html=1;align=center;verticalAlign=middle;whiteSpace=wrap;rounded=0;" parent="1" vertex="1">
          <mxGeometry x="78" y="313" width="60" height="10" as="geometry" />
        </mxCell>
        <mxCell id="XVy98jqLhAhtygX9DMXy-11" value="Sesso" style="text;html=1;align=center;verticalAlign=middle;whiteSpace=wrap;rounded=0;" parent="1" vertex="1">
          <mxGeometry x="94" y="323" width="48" height="10" as="geometry" />
        </mxCell>
        <mxCell id="XVy98jqLhAhtygX9DMXy-12" value="DataNascita" style="text;html=1;align=center;verticalAlign=middle;whiteSpace=wrap;rounded=0;" parent="1" vertex="1">
          <mxGeometry x="62" y="332" width="80" height="10" as="geometry" />
        </mxCell>
        <mxCell id="XVy98jqLhAhtygX9DMXy-14" value="Risiede" style="rhombus;whiteSpace=wrap;html=1;" parent="1" vertex="1">
          <mxGeometry x="171" y="216" width="80" height="40" as="geometry" />
        </mxCell>
        <mxCell id="XVy98jqLhAhtygX9DMXy-15" value="Città" style="rounded=0;whiteSpace=wrap;html=1;" parent="1" vertex="1">
          <mxGeometry x="171" y="136" width="80" height="40" as="geometry" />
        </mxCell>
        <mxCell id="XVy98jqLhAhtygX9DMXy-16" value="" style="endArrow=oval;html=1;rounded=0;endFill=0;" parent="1" edge="1">
          <mxGeometry width="50" height="50" relative="1" as="geometry">
            <mxPoint x="181" y="136" as="sourcePoint" />
            <mxPoint x="181" y="100" as="targetPoint" />
          </mxGeometry>
        </mxCell>
        <mxCell id="XVy98jqLhAhtygX9DMXy-17" value="" style="endArrow=oval;html=1;rounded=0;endFill=0;" parent="1" edge="1">
          <mxGeometry width="50" height="50" relative="1" as="geometry">
            <mxPoint x="192.84" y="136" as="sourcePoint" />
            <mxPoint x="193" y="110" as="targetPoint" />
          </mxGeometry>
        </mxCell>
        <mxCell id="XVy98jqLhAhtygX9DMXy-18" value="Nome" style="text;html=1;align=center;verticalAlign=middle;whiteSpace=wrap;rounded=0;" parent="1" vertex="1">
          <mxGeometry x="164" y="95" width="80" height="10" as="geometry" />
        </mxCell>
        <mxCell id="XVy98jqLhAhtygX9DMXy-19" value="Provincia" style="text;html=1;align=center;verticalAlign=middle;whiteSpace=wrap;rounded=0;" parent="1" vertex="1">
          <mxGeometry x="185" y="105" width="80" height="10" as="geometry" />
        </mxCell>
        <mxCell id="XVy98jqLhAhtygX9DMXy-20" value="" style="endArrow=oval;html=1;rounded=0;endFill=1;" parent="1" edge="1">
          <mxGeometry width="50" height="50" relative="1" as="geometry">
            <mxPoint x="211" y="130" as="sourcePoint" />
            <mxPoint x="171" y="130" as="targetPoint" />
          </mxGeometry>
        </mxCell>
        <mxCell id="XVy98jqLhAhtygX9DMXy-21" value="" style="endArrow=none;html=1;rounded=0;" parent="1" source="XVy98jqLhAhtygX9DMXy-14" target="XVy98jqLhAhtygX9DMXy-15" edge="1">
          <mxGeometry width="50" height="50" relative="1" as="geometry">
            <mxPoint x="261" y="236" as="sourcePoint" />
            <mxPoint x="211" y="186" as="targetPoint" />
          </mxGeometry>
        </mxCell>
        <mxCell id="XVy98jqLhAhtygX9DMXy-22" value="" style="endArrow=none;html=1;rounded=0;" parent="1" source="XVy98jqLhAhtygX9DMXy-1" target="XVy98jqLhAhtygX9DMXy-14" edge="1">
          <mxGeometry width="50" height="50" relative="1" as="geometry">
            <mxPoint x="261" y="276" as="sourcePoint" />
            <mxPoint x="311" y="226" as="targetPoint" />
          </mxGeometry>
        </mxCell>
        <mxCell id="XVy98jqLhAhtygX9DMXy-23" value="(1,1)" style="text;html=1;align=center;verticalAlign=middle;whiteSpace=wrap;rounded=0;" parent="1" vertex="1">
          <mxGeometry x="193" y="256" width="80" height="10" as="geometry" />
        </mxCell>
        <mxCell id="XVy98jqLhAhtygX9DMXy-24" value="(0,N)" style="text;html=1;align=center;verticalAlign=middle;whiteSpace=wrap;rounded=0;" parent="1" vertex="1">
          <mxGeometry x="193" y="206" width="80" height="10" as="geometry" />
        </mxCell>
        <mxCell id="Gm87zyLQmXBAuulPEe1k-1" value="Possiede" style="rhombus;whiteSpace=wrap;html=1;" parent="1" vertex="1">
          <mxGeometry x="331" y="296" width="80" height="40" as="geometry" />
        </mxCell>
        <mxCell id="Gm87zyLQmXBAuulPEe1k-2" value="" style="endArrow=none;html=1;rounded=0;" parent="1" source="XVy98jqLhAhtygX9DMXy-1" target="Gm87zyLQmXBAuulPEe1k-1" edge="1">
          <mxGeometry width="50" height="50" relative="1" as="geometry">
            <mxPoint x="451" y="336" as="sourcePoint" />
            <mxPoint x="501" y="286" as="targetPoint" />
          </mxGeometry>
        </mxCell>
        <mxCell id="Gm87zyLQmXBAuulPEe1k-3" value="Casa" style="rounded=0;whiteSpace=wrap;html=1;" parent="1" vertex="1">
          <mxGeometry x="491" y="296" width="80" height="40" as="geometry" />
        </mxCell>
        <mxCell id="Gm87zyLQmXBAuulPEe1k-5" value="CittàInd" style="rhombus;whiteSpace=wrap;html=1;" parent="1" vertex="1">
          <mxGeometry x="331" y="136" width="80" height="40" as="geometry" />
        </mxCell>
        <mxCell id="Gm87zyLQmXBAuulPEe1k-6" value="" style="endArrow=none;html=1;rounded=0;" parent="1" source="Gm87zyLQmXBAuulPEe1k-3" target="Gm87zyLQmXBAuulPEe1k-12" edge="1">
          <mxGeometry width="50" height="50" relative="1" as="geometry">
            <mxPoint x="451" y="226" as="sourcePoint" />
            <mxPoint x="571" y="266" as="targetPoint" />
          </mxGeometry>
        </mxCell>
        <mxCell id="Gm87zyLQmXBAuulPEe1k-8" value="" style="endArrow=none;html=1;rounded=0;" parent="1" source="Gm87zyLQmXBAuulPEe1k-3" target="Gm87zyLQmXBAuulPEe1k-1" edge="1">
          <mxGeometry width="50" height="50" relative="1" as="geometry">
            <mxPoint x="451" y="226" as="sourcePoint" />
            <mxPoint x="371" y="316" as="targetPoint" />
          </mxGeometry>
        </mxCell>
        <mxCell id="Gm87zyLQmXBAuulPEe1k-11" value="Indirizzo" style="rounded=0;whiteSpace=wrap;html=1;" parent="1" vertex="1">
          <mxGeometry x="491" y="136" width="80" height="40" as="geometry" />
        </mxCell>
        <mxCell id="Gm87zyLQmXBAuulPEe1k-12" value="CasaUbicata" style="rhombus;whiteSpace=wrap;html=1;" parent="1" vertex="1">
          <mxGeometry x="491" y="216" width="80" height="40" as="geometry" />
        </mxCell>
        <mxCell id="Gm87zyLQmXBAuulPEe1k-13" value="" style="endArrow=none;html=1;rounded=0;" parent="1" source="Gm87zyLQmXBAuulPEe1k-12" target="Gm87zyLQmXBAuulPEe1k-11" edge="1">
          <mxGeometry width="50" height="50" relative="1" as="geometry">
            <mxPoint x="541" y="306" as="sourcePoint" />
            <mxPoint x="541" y="266" as="targetPoint" />
          </mxGeometry>
        </mxCell>
        <mxCell id="Gm87zyLQmXBAuulPEe1k-14" value="" style="endArrow=none;html=1;rounded=0;" parent="1" source="Gm87zyLQmXBAuulPEe1k-5" target="Gm87zyLQmXBAuulPEe1k-11" edge="1">
          <mxGeometry width="50" height="50" relative="1" as="geometry">
            <mxPoint x="541" y="226" as="sourcePoint" />
            <mxPoint x="541" y="186" as="targetPoint" />
          </mxGeometry>
        </mxCell>
        <mxCell id="Gm87zyLQmXBAuulPEe1k-15" value="" style="endArrow=none;html=1;rounded=0;" parent="1" source="Gm87zyLQmXBAuulPEe1k-5" target="XVy98jqLhAhtygX9DMXy-15" edge="1">
          <mxGeometry width="50" height="50" relative="1" as="geometry">
            <mxPoint x="221" y="226" as="sourcePoint" />
            <mxPoint x="221" y="186" as="targetPoint" />
          </mxGeometry>
        </mxCell>
        <mxCell id="Gm87zyLQmXBAuulPEe1k-16" value="(0,N)" style="text;html=1;align=center;verticalAlign=middle;whiteSpace=wrap;rounded=0;" parent="1" vertex="1">
          <mxGeometry x="281" y="136" width="80" height="10" as="geometry" />
        </mxCell>
        <mxCell id="Gm87zyLQmXBAuulPEe1k-17" value="(1,1)" style="text;html=1;align=center;verticalAlign=middle;whiteSpace=wrap;rounded=0;" parent="1" vertex="1">
          <mxGeometry x="381" y="136" width="80" height="10" as="geometry" />
        </mxCell>
        <mxCell id="Gm87zyLQmXBAuulPEe1k-19" value="" style="endArrow=oval;html=1;rounded=0;endFill=0;" parent="1" edge="1">
          <mxGeometry width="50" height="50" relative="1" as="geometry">
            <mxPoint x="204.92000000000002" y="136" as="sourcePoint" />
            <mxPoint x="205" y="120" as="targetPoint" />
          </mxGeometry>
        </mxCell>
        <mxCell id="Gm87zyLQmXBAuulPEe1k-20" value="Stato" style="text;html=1;align=center;verticalAlign=middle;whiteSpace=wrap;rounded=0;" parent="1" vertex="1">
          <mxGeometry x="186" y="115" width="80" height="10" as="geometry" />
        </mxCell>
        <mxCell id="Gm87zyLQmXBAuulPEe1k-21" value="(0,N)" style="text;html=1;align=center;verticalAlign=middle;whiteSpace=wrap;rounded=0;" parent="1" vertex="1">
          <mxGeometry x="281" y="296" width="80" height="10" as="geometry" />
        </mxCell>
        <mxCell id="Gm87zyLQmXBAuulPEe1k-23" value="(1,1)" style="text;html=1;align=center;verticalAlign=middle;whiteSpace=wrap;rounded=0;" parent="1" vertex="1">
          <mxGeometry x="381" y="296" width="80" height="10" as="geometry" />
        </mxCell>
        <mxCell id="Gm87zyLQmXBAuulPEe1k-24" value="(1,N)" style="text;html=1;align=center;verticalAlign=middle;whiteSpace=wrap;rounded=0;" parent="1" vertex="1">
          <mxGeometry x="511" y="206" width="80" height="10" as="geometry" />
        </mxCell>
        <mxCell id="Gm87zyLQmXBAuulPEe1k-25" value="(1,1)" style="text;html=1;align=center;verticalAlign=middle;whiteSpace=wrap;rounded=0;" parent="1" vertex="1">
          <mxGeometry x="511" y="256" width="80" height="10" as="geometry" />
        </mxCell>
        <mxCell id="Gm87zyLQmXBAuulPEe1k-26" value="" style="endArrow=oval;html=1;rounded=0;endFill=0;" parent="1" edge="1">
          <mxGeometry width="50" height="50" relative="1" as="geometry">
            <mxPoint x="506" y="136" as="sourcePoint" />
            <mxPoint x="506" y="100" as="targetPoint" />
          </mxGeometry>
        </mxCell>
        <mxCell id="Gm87zyLQmXBAuulPEe1k-27" value="" style="endArrow=oval;html=1;rounded=0;endFill=0;" parent="1" edge="1">
          <mxGeometry width="50" height="50" relative="1" as="geometry">
            <mxPoint x="517.84" y="136" as="sourcePoint" />
            <mxPoint x="518" y="110" as="targetPoint" />
          </mxGeometry>
        </mxCell>
        <mxCell id="Gm87zyLQmXBAuulPEe1k-28" value="Via_Pza" style="text;html=1;align=center;verticalAlign=middle;whiteSpace=wrap;rounded=0;" parent="1" vertex="1">
          <mxGeometry x="495" y="95" width="80" height="10" as="geometry" />
        </mxCell>
        <mxCell id="Gm87zyLQmXBAuulPEe1k-29" value="N_Civico" style="text;html=1;align=center;verticalAlign=middle;whiteSpace=wrap;rounded=0;" parent="1" vertex="1">
          <mxGeometry x="511" y="105" width="80" height="10" as="geometry" />
        </mxCell>
        <mxCell id="Gm87zyLQmXBAuulPEe1k-30" value="" style="endArrow=oval;html=1;rounded=0;endFill=1;" parent="1" edge="1">
          <mxGeometry width="50" height="50" relative="1" as="geometry">
            <mxPoint x="521" y="130" as="sourcePoint" />
            <mxPoint x="481" y="170" as="targetPoint" />
            <Array as="points">
              <mxPoint x="481" y="130" />
            </Array>
          </mxGeometry>
        </mxCell>
        <mxCell id="Gm87zyLQmXBAuulPEe1k-31" value="" style="endArrow=oval;html=1;rounded=0;endFill=0;" parent="1" edge="1">
          <mxGeometry width="50" height="50" relative="1" as="geometry">
            <mxPoint x="529.9200000000001" y="136" as="sourcePoint" />
            <mxPoint x="530" y="120" as="targetPoint" />
          </mxGeometry>
        </mxCell>
        <mxCell id="Gm87zyLQmXBAuulPEe1k-32" value="L_Civico (0,1)" style="text;html=1;align=center;verticalAlign=middle;whiteSpace=wrap;rounded=0;" parent="1" vertex="1">
          <mxGeometry x="534" y="115" width="80" height="10" as="geometry" />
        </mxCell>
        <mxCell id="Gm87zyLQmXBAuulPEe1k-36" value="CasaIndisp" style="rhombus;whiteSpace=wrap;html=1;" parent="1" vertex="1">
          <mxGeometry x="491" y="376" width="80" height="40" as="geometry" />
        </mxCell>
        <mxCell id="Gm87zyLQmXBAuulPEe1k-37" value="Periodo" style="rounded=0;whiteSpace=wrap;html=1;" parent="1" vertex="1">
          <mxGeometry x="491" y="453.5" width="80" height="40" as="geometry" />
        </mxCell>
        <mxCell id="Gm87zyLQmXBAuulPEe1k-38" value="" style="endArrow=oval;html=1;rounded=0;endFill=0;" parent="1" edge="1">
          <mxGeometry width="50" height="50" relative="1" as="geometry">
            <mxPoint x="491" y="460" as="sourcePoint" />
            <mxPoint x="461" y="460" as="targetPoint" />
          </mxGeometry>
        </mxCell>
        <mxCell id="Gm87zyLQmXBAuulPEe1k-39" value="" style="endArrow=oval;html=1;rounded=0;endFill=0;" parent="1" edge="1">
          <mxGeometry width="50" height="50" relative="1" as="geometry">
            <mxPoint x="491" y="480" as="sourcePoint" />
            <mxPoint x="461" y="480" as="targetPoint" />
          </mxGeometry>
        </mxCell>
        <mxCell id="Gm87zyLQmXBAuulPEe1k-40" value="" style="endArrow=none;html=1;rounded=0;" parent="1" source="Gm87zyLQmXBAuulPEe1k-3" target="Gm87zyLQmXBAuulPEe1k-36" edge="1">
          <mxGeometry width="50" height="50" relative="1" as="geometry">
            <mxPoint x="501" y="326" as="sourcePoint" />
            <mxPoint x="421" y="326" as="targetPoint" />
          </mxGeometry>
        </mxCell>
        <mxCell id="Gm87zyLQmXBAuulPEe1k-41" value="" style="endArrow=none;html=1;rounded=0;" parent="1" source="Gm87zyLQmXBAuulPEe1k-36" target="Gm87zyLQmXBAuulPEe1k-37" edge="1">
          <mxGeometry width="50" height="50" relative="1" as="geometry">
            <mxPoint x="541" y="346" as="sourcePoint" />
            <mxPoint x="541" y="386" as="targetPoint" />
          </mxGeometry>
        </mxCell>
        <mxCell id="Gm87zyLQmXBAuulPEe1k-42" value="(0,N)" style="text;html=1;align=center;verticalAlign=middle;whiteSpace=wrap;rounded=0;" parent="1" vertex="1">
          <mxGeometry x="511" y="361" width="80" height="10" as="geometry" />
        </mxCell>
        <mxCell id="Gm87zyLQmXBAuulPEe1k-43" value="(0,N)" style="text;html=1;align=center;verticalAlign=middle;whiteSpace=wrap;rounded=0;" parent="1" vertex="1">
          <mxGeometry x="511" y="416" width="80" height="10" as="geometry" />
        </mxCell>
        <mxCell id="Gm87zyLQmXBAuulPEe1k-44" value="Da" style="text;html=1;align=center;verticalAlign=middle;whiteSpace=wrap;rounded=0;" parent="1" vertex="1">
          <mxGeometry x="405" y="453.5" width="80" height="10" as="geometry" />
        </mxCell>
        <mxCell id="Gm87zyLQmXBAuulPEe1k-45" value="A" style="text;html=1;align=center;verticalAlign=middle;whiteSpace=wrap;rounded=0;" parent="1" vertex="1">
          <mxGeometry x="410" y="474" width="80" height="10" as="geometry" />
        </mxCell>
        <mxCell id="Gm87zyLQmXBAuulPEe1k-46" value="" style="endArrow=oval;html=1;rounded=0;endFill=1;" parent="1" edge="1">
          <mxGeometry width="50" height="50" relative="1" as="geometry">
            <mxPoint x="471" y="490" as="sourcePoint" />
            <mxPoint x="471" y="448" as="targetPoint" />
          </mxGeometry>
        </mxCell>
        <mxCell id="Gm87zyLQmXBAuulPEe1k-47" value="" style="endArrow=oval;html=1;rounded=0;endFill=0;" parent="1" edge="1">
          <mxGeometry width="50" height="50" relative="1" as="geometry">
            <mxPoint x="495" y="336" as="sourcePoint" />
            <mxPoint x="495" y="350" as="targetPoint" />
          </mxGeometry>
        </mxCell>
        <mxCell id="Gm87zyLQmXBAuulPEe1k-48" value="" style="endArrow=oval;html=1;rounded=0;endFill=0;exitX=0.25;exitY=1;exitDx=0;exitDy=0;" parent="1" edge="1">
          <mxGeometry width="50" height="50" relative="1" as="geometry">
            <mxPoint x="505" y="336" as="sourcePoint" />
            <mxPoint x="505" y="360" as="targetPoint" />
          </mxGeometry>
        </mxCell>
        <mxCell id="Gm87zyLQmXBAuulPEe1k-49" value="NAdulti" style="text;html=1;align=center;verticalAlign=middle;whiteSpace=wrap;rounded=0;" parent="1" vertex="1">
          <mxGeometry x="426" y="345" width="80" height="10" as="geometry" />
        </mxCell>
        <mxCell id="Gm87zyLQmXBAuulPEe1k-50" value="NBambini" style="text;html=1;align=center;verticalAlign=middle;whiteSpace=wrap;rounded=0;" parent="1" vertex="1">
          <mxGeometry x="432" y="355" width="80" height="10" as="geometry" />
        </mxCell>
        <mxCell id="Gm87zyLQmXBAuulPEe1k-51" value="" style="endArrow=oval;html=1;rounded=0;endFill=1;" parent="1" edge="1">
          <mxGeometry width="50" height="50" relative="1" as="geometry">
            <mxPoint x="481" y="320" as="sourcePoint" />
            <mxPoint x="541" y="280" as="targetPoint" />
            <Array as="points">
              <mxPoint x="481" y="280" />
            </Array>
          </mxGeometry>
        </mxCell>
        <mxCell id="Gm87zyLQmXBAuulPEe1k-52" value="" style="endArrow=oval;html=1;rounded=0;endFill=0;exitX=0.25;exitY=1;exitDx=0;exitDy=0;" parent="1" edge="1">
          <mxGeometry width="50" height="50" relative="1" as="geometry">
            <mxPoint x="516.28" y="336" as="sourcePoint" />
            <mxPoint x="516" y="370" as="targetPoint" />
          </mxGeometry>
        </mxCell>
        <mxCell id="Gm87zyLQmXBAuulPEe1k-53" value="DistMezzi" style="text;html=1;align=center;verticalAlign=middle;whiteSpace=wrap;rounded=0;" parent="1" vertex="1">
          <mxGeometry x="442" y="365" width="80" height="10" as="geometry" />
        </mxCell>
        <mxCell id="Gm87zyLQmXBAuulPEe1k-54" value="" style="endArrow=oval;html=1;rounded=0;endFill=0;" parent="1" edge="1">
          <mxGeometry width="50" height="50" relative="1" as="geometry">
            <mxPoint x="561" y="296" as="sourcePoint" />
            <mxPoint x="561" y="276" as="targetPoint" />
          </mxGeometry>
        </mxCell>
        <mxCell id="Gm87zyLQmXBAuulPEe1k-55" value="DistCentro" style="text;html=1;align=center;verticalAlign=middle;whiteSpace=wrap;rounded=0;" parent="1" vertex="1">
          <mxGeometry x="555" y="271" width="80" height="10" as="geometry" />
        </mxCell>
        <mxCell id="Gm87zyLQmXBAuulPEe1k-56" value="StanzaUbicata" style="rhombus;whiteSpace=wrap;html=1;" parent="1" vertex="1">
          <mxGeometry x="651" y="296" width="100" height="40" as="geometry" />
        </mxCell>
        <mxCell id="Gm87zyLQmXBAuulPEe1k-58" value="Stanza" style="rounded=0;whiteSpace=wrap;html=1;" parent="1" vertex="1">
          <mxGeometry x="831" y="296" width="80" height="40" as="geometry" />
        </mxCell>
        <mxCell id="Gm87zyLQmXBAuulPEe1k-59" value="" style="endArrow=none;html=1;rounded=0;" parent="1" source="Gm87zyLQmXBAuulPEe1k-3" target="Gm87zyLQmXBAuulPEe1k-56" edge="1">
          <mxGeometry width="50" height="50" relative="1" as="geometry">
            <mxPoint x="601" y="350" as="sourcePoint" />
            <mxPoint x="651" y="300" as="targetPoint" />
          </mxGeometry>
        </mxCell>
        <mxCell id="Gm87zyLQmXBAuulPEe1k-60" value="" style="endArrow=none;html=1;rounded=0;" parent="1" source="Gm87zyLQmXBAuulPEe1k-58" target="Gm87zyLQmXBAuulPEe1k-56" edge="1">
          <mxGeometry width="50" height="50" relative="1" as="geometry">
            <mxPoint x="761" y="340" as="sourcePoint" />
            <mxPoint x="661" y="326" as="targetPoint" />
          </mxGeometry>
        </mxCell>
        <mxCell id="Gm87zyLQmXBAuulPEe1k-61" value="" style="endArrow=oval;html=1;rounded=0;endFill=0;" parent="1" edge="1">
          <mxGeometry width="50" height="50" relative="1" as="geometry">
            <mxPoint x="841" y="296" as="sourcePoint" />
            <mxPoint x="841" y="276" as="targetPoint" />
          </mxGeometry>
        </mxCell>
        <mxCell id="Gm87zyLQmXBAuulPEe1k-62" value="Nome" style="text;html=1;align=center;verticalAlign=middle;whiteSpace=wrap;rounded=0;" parent="1" vertex="1">
          <mxGeometry x="824" y="271" width="80" height="9" as="geometry" />
        </mxCell>
        <mxCell id="Gm87zyLQmXBAuulPEe1k-63" value="" style="endArrow=oval;html=1;rounded=0;endFill=1;" parent="1" edge="1">
          <mxGeometry width="50" height="50" relative="1" as="geometry">
            <mxPoint x="821" y="320" as="sourcePoint" />
            <mxPoint x="851" y="286" as="targetPoint" />
            <Array as="points">
              <mxPoint x="821" y="286" />
            </Array>
          </mxGeometry>
        </mxCell>
        <mxCell id="Gm87zyLQmXBAuulPEe1k-64" value="StanzaIndisp" style="rhombus;whiteSpace=wrap;html=1;" parent="1" vertex="1">
          <mxGeometry x="651" y="376" width="100" height="40" as="geometry" />
        </mxCell>
        <mxCell id="Gm87zyLQmXBAuulPEe1k-65" value="" style="endArrow=none;html=1;rounded=0;entryX=1;entryY=0.25;entryDx=0;entryDy=0;" parent="1" source="Gm87zyLQmXBAuulPEe1k-64" target="Gm87zyLQmXBAuulPEe1k-37" edge="1">
          <mxGeometry width="50" height="50" relative="1" as="geometry">
            <mxPoint x="841" y="326" as="sourcePoint" />
            <mxPoint x="761" y="326" as="targetPoint" />
            <Array as="points">
              <mxPoint x="701" y="464" />
            </Array>
          </mxGeometry>
        </mxCell>
        <mxCell id="Gm87zyLQmXBAuulPEe1k-66" value="" style="endArrow=none;html=1;rounded=0;" parent="1" source="Gm87zyLQmXBAuulPEe1k-58" target="Gm87zyLQmXBAuulPEe1k-64" edge="1">
          <mxGeometry width="50" height="50" relative="1" as="geometry">
            <mxPoint x="661" y="484" as="sourcePoint" />
            <mxPoint x="581" y="484" as="targetPoint" />
            <Array as="points">
              <mxPoint x="871" y="396" />
            </Array>
          </mxGeometry>
        </mxCell>
        <mxCell id="Gm87zyLQmXBAuulPEe1k-67" value="PLUbicato" style="rhombus;whiteSpace=wrap;html=1;" parent="1" vertex="1">
          <mxGeometry x="991" y="296" width="100" height="40" as="geometry" />
        </mxCell>
        <mxCell id="Gm87zyLQmXBAuulPEe1k-68" value="" style="endArrow=none;html=1;rounded=0;" parent="1" source="Gm87zyLQmXBAuulPEe1k-67" target="Gm87zyLQmXBAuulPEe1k-58" edge="1">
          <mxGeometry width="50" height="50" relative="1" as="geometry">
            <mxPoint x="841" y="326" as="sourcePoint" />
            <mxPoint x="761" y="326" as="targetPoint" />
          </mxGeometry>
        </mxCell>
        <mxCell id="Gm87zyLQmXBAuulPEe1k-69" value="PostoLetto" style="rounded=0;whiteSpace=wrap;html=1;" parent="1" vertex="1">
          <mxGeometry x="1001" y="376" width="80" height="40" as="geometry" />
        </mxCell>
        <mxCell id="Gm87zyLQmXBAuulPEe1k-70" value="" style="endArrow=none;html=1;rounded=0;" parent="1" source="Gm87zyLQmXBAuulPEe1k-67" target="Gm87zyLQmXBAuulPEe1k-69" edge="1">
          <mxGeometry width="50" height="50" relative="1" as="geometry">
            <mxPoint x="1001" y="326" as="sourcePoint" />
            <mxPoint x="921" y="326" as="targetPoint" />
          </mxGeometry>
        </mxCell>
        <mxCell id="Gm87zyLQmXBAuulPEe1k-71" value="" style="endArrow=oval;html=1;rounded=0;endFill=0;" parent="1" edge="1">
          <mxGeometry width="50" height="50" relative="1" as="geometry">
            <mxPoint x="1081" y="385.83" as="sourcePoint" />
            <mxPoint x="1111" y="386" as="targetPoint" />
          </mxGeometry>
        </mxCell>
        <mxCell id="Gm87zyLQmXBAuulPEe1k-72" value="Tipo" style="text;html=1;align=center;verticalAlign=middle;whiteSpace=wrap;rounded=0;" parent="1" vertex="1">
          <mxGeometry x="1100" y="382" width="59" height="9" as="geometry" />
        </mxCell>
        <mxCell id="Gm87zyLQmXBAuulPEe1k-73" value="" style="endArrow=oval;html=1;rounded=0;endFill=0;" parent="1" edge="1">
          <mxGeometry width="50" height="50" relative="1" as="geometry">
            <mxPoint x="1081" y="405.83" as="sourcePoint" />
            <mxPoint x="1111" y="406" as="targetPoint" />
          </mxGeometry>
        </mxCell>
        <mxCell id="Gm87zyLQmXBAuulPEe1k-74" value="Numero" style="text;html=1;align=center;verticalAlign=middle;whiteSpace=wrap;rounded=0;" parent="1" vertex="1">
          <mxGeometry x="1110" y="401.5" width="59" height="9" as="geometry" />
        </mxCell>
        <mxCell id="Gm87zyLQmXBAuulPEe1k-75" value="" style="endArrow=oval;html=1;rounded=0;endFill=1;" parent="1" edge="1">
          <mxGeometry width="50" height="50" relative="1" as="geometry">
            <mxPoint x="1091" y="410" as="sourcePoint" />
            <mxPoint x="1021" y="360" as="targetPoint" />
            <Array as="points">
              <mxPoint x="1091" y="360" />
            </Array>
          </mxGeometry>
        </mxCell>
        <mxCell id="Gm87zyLQmXBAuulPEe1k-76" value="PLIndisp" style="rhombus;whiteSpace=wrap;html=1;" parent="1" vertex="1">
          <mxGeometry x="879" y="376" width="100" height="40" as="geometry" />
        </mxCell>
        <mxCell id="Gm87zyLQmXBAuulPEe1k-77" value="" style="endArrow=none;html=1;rounded=0;" parent="1" target="Gm87zyLQmXBAuulPEe1k-76" edge="1">
          <mxGeometry width="50" height="50" relative="1" as="geometry">
            <mxPoint x="571" y="484.00000000000006" as="sourcePoint" />
            <mxPoint x="841" y="484" as="targetPoint" />
            <Array as="points">
              <mxPoint x="929" y="484" />
            </Array>
          </mxGeometry>
        </mxCell>
        <mxCell id="Gm87zyLQmXBAuulPEe1k-78" value="" style="endArrow=none;html=1;rounded=0;" parent="1" source="Gm87zyLQmXBAuulPEe1k-76" target="Gm87zyLQmXBAuulPEe1k-69" edge="1">
          <mxGeometry width="50" height="50" relative="1" as="geometry">
            <mxPoint x="1081" y="340" as="sourcePoint" />
            <mxPoint x="1051" y="386" as="targetPoint" />
          </mxGeometry>
        </mxCell>
        <mxCell id="Gm87zyLQmXBAuulPEe1k-79" value="Ospite" style="rhombus;whiteSpace=wrap;html=1;" parent="1" vertex="1">
          <mxGeometry x="109" y="423.5" width="80" height="40" as="geometry" />
        </mxCell>
        <mxCell id="Gm87zyLQmXBAuulPEe1k-80" value="Effettua" style="rhombus;whiteSpace=wrap;html=1;" parent="1" vertex="1">
          <mxGeometry x="239" y="423.5" width="80" height="40" as="geometry" />
        </mxCell>
        <mxCell id="Gm87zyLQmXBAuulPEe1k-81" value="" style="endArrow=oval;html=1;rounded=0;endFill=0;" parent="1" edge="1">
          <mxGeometry width="50" height="50" relative="1" as="geometry">
            <mxPoint x="171" y="316.93" as="sourcePoint" />
            <mxPoint x="141" y="316.93" as="targetPoint" />
          </mxGeometry>
        </mxCell>
        <mxCell id="Gm87zyLQmXBAuulPEe1k-82" value="" style="endArrow=oval;html=1;rounded=0;endFill=0;" parent="1" edge="1">
          <mxGeometry width="50" height="50" relative="1" as="geometry">
            <mxPoint x="171" y="324.93" as="sourcePoint" />
            <mxPoint x="141" y="324.93" as="targetPoint" />
          </mxGeometry>
        </mxCell>
        <mxCell id="Gm87zyLQmXBAuulPEe1k-83" value="" style="endArrow=oval;html=1;rounded=0;endFill=0;" parent="1" edge="1">
          <mxGeometry width="50" height="50" relative="1" as="geometry">
            <mxPoint x="171" y="332.93" as="sourcePoint" />
            <mxPoint x="141" y="332.93" as="targetPoint" />
          </mxGeometry>
        </mxCell>
        <mxCell id="9lV6Q84r9_EHIq5W9f6j-1" value="" style="shape=flexArrow;endArrow=classic;html=1;rounded=0;" parent="1" source="Gm87zyLQmXBAuulPEe1k-80" target="Gm87zyLQmXBAuulPEe1k-79" edge="1">
          <mxGeometry width="50" height="50" relative="1" as="geometry">
            <mxPoint x="289" y="520" as="sourcePoint" />
            <mxPoint x="339" y="470" as="targetPoint" />
          </mxGeometry>
        </mxCell>
        <mxCell id="9lV6Q84r9_EHIq5W9f6j-2" value="Prenotazione" style="rounded=0;whiteSpace=wrap;html=1;" parent="1" vertex="1">
          <mxGeometry x="169" y="550" width="80" height="44" as="geometry" />
        </mxCell>
        <mxCell id="9lV6Q84r9_EHIq5W9f6j-3" value="(0,N)" style="text;html=1;align=center;verticalAlign=middle;whiteSpace=wrap;rounded=0;" parent="1" vertex="1">
          <mxGeometry x="599" y="296" width="80" height="10" as="geometry" />
        </mxCell>
        <mxCell id="9lV6Q84r9_EHIq5W9f6j-4" value="(1,1)" style="text;html=1;align=center;verticalAlign=middle;whiteSpace=wrap;rounded=0;" parent="1" vertex="1">
          <mxGeometry x="719" y="296" width="80" height="10" as="geometry" />
        </mxCell>
        <mxCell id="9lV6Q84r9_EHIq5W9f6j-5" value="(0,N)" style="text;html=1;align=center;verticalAlign=middle;whiteSpace=wrap;rounded=0;" parent="1" vertex="1">
          <mxGeometry x="719" y="376" width="80" height="10" as="geometry" />
        </mxCell>
        <mxCell id="9lV6Q84r9_EHIq5W9f6j-6" value="(0,N)" style="text;html=1;align=center;verticalAlign=middle;whiteSpace=wrap;rounded=0;" parent="1" vertex="1">
          <mxGeometry x="624" y="416" width="80" height="10" as="geometry" />
        </mxCell>
        <mxCell id="9lV6Q84r9_EHIq5W9f6j-7" value="(0,N)" style="text;html=1;align=center;verticalAlign=middle;whiteSpace=wrap;rounded=0;" parent="1" vertex="1">
          <mxGeometry x="939" y="375" width="80" height="10" as="geometry" />
        </mxCell>
        <mxCell id="9lV6Q84r9_EHIq5W9f6j-8" value="(0,N)" style="text;html=1;align=center;verticalAlign=middle;whiteSpace=wrap;rounded=0;" parent="1" vertex="1">
          <mxGeometry x="859" y="416" width="80" height="10" as="geometry" />
        </mxCell>
        <mxCell id="9lV6Q84r9_EHIq5W9f6j-9" value="(0,N)" style="text;html=1;align=center;verticalAlign=middle;whiteSpace=wrap;rounded=0;" parent="1" vertex="1">
          <mxGeometry x="939" y="296" width="80" height="10" as="geometry" />
        </mxCell>
        <mxCell id="9lV6Q84r9_EHIq5W9f6j-10" value="(1,1)" style="text;html=1;align=center;verticalAlign=middle;whiteSpace=wrap;rounded=0;" parent="1" vertex="1">
          <mxGeometry x="1029" y="336" width="80" height="10" as="geometry" />
        </mxCell>
        <mxCell id="9lV6Q84r9_EHIq5W9f6j-11" value="" style="endArrow=none;html=1;rounded=0;entryX=0.25;entryY=1;entryDx=0;entryDy=0;" parent="1" source="Gm87zyLQmXBAuulPEe1k-79" target="XVy98jqLhAhtygX9DMXy-1" edge="1">
          <mxGeometry width="50" height="50" relative="1" as="geometry">
            <mxPoint x="239" y="510" as="sourcePoint" />
            <mxPoint x="289" y="460" as="targetPoint" />
            <Array as="points">
              <mxPoint x="149" y="400" />
              <mxPoint x="191" y="400" />
            </Array>
          </mxGeometry>
        </mxCell>
        <mxCell id="9lV6Q84r9_EHIq5W9f6j-12" value="" style="endArrow=none;html=1;rounded=0;entryX=0.75;entryY=1;entryDx=0;entryDy=0;" parent="1" source="Gm87zyLQmXBAuulPEe1k-80" target="XVy98jqLhAhtygX9DMXy-1" edge="1">
          <mxGeometry width="50" height="50" relative="1" as="geometry">
            <mxPoint x="164" y="438" as="sourcePoint" />
            <mxPoint x="210" y="350" as="targetPoint" />
            <Array as="points">
              <mxPoint x="279" y="400" />
              <mxPoint x="231" y="400" />
            </Array>
          </mxGeometry>
        </mxCell>
        <mxCell id="9lV6Q84r9_EHIq5W9f6j-14" value="" style="endArrow=none;html=1;rounded=0;exitX=0.25;exitY=0;exitDx=0;exitDy=0;" parent="1" source="9lV6Q84r9_EHIq5W9f6j-2" target="Gm87zyLQmXBAuulPEe1k-79" edge="1">
          <mxGeometry width="50" height="50" relative="1" as="geometry">
            <mxPoint x="209" y="520" as="sourcePoint" />
            <mxPoint x="239" y="450" as="targetPoint" />
            <Array as="points">
              <mxPoint x="189" y="490" />
              <mxPoint x="149" y="490" />
            </Array>
          </mxGeometry>
        </mxCell>
        <mxCell id="9lV6Q84r9_EHIq5W9f6j-16" value="" style="endArrow=none;html=1;rounded=0;exitX=0.75;exitY=0;exitDx=0;exitDy=0;" parent="1" source="9lV6Q84r9_EHIq5W9f6j-2" target="Gm87zyLQmXBAuulPEe1k-80" edge="1">
          <mxGeometry width="50" height="50" relative="1" as="geometry">
            <mxPoint x="216" y="534" as="sourcePoint" />
            <mxPoint x="266" y="484" as="targetPoint" />
            <Array as="points">
              <mxPoint x="229" y="490" />
              <mxPoint x="279" y="490" />
            </Array>
          </mxGeometry>
        </mxCell>
        <mxCell id="9lV6Q84r9_EHIq5W9f6j-17" value="(1,1)" style="text;html=1;align=center;verticalAlign=middle;whiteSpace=wrap;rounded=0;" parent="1" vertex="1">
          <mxGeometry x="220" y="464" width="80" height="10" as="geometry" />
        </mxCell>
        <mxCell id="9lV6Q84r9_EHIq5W9f6j-19" value="(1,N)" style="text;html=1;align=center;verticalAlign=middle;whiteSpace=wrap;rounded=0;" parent="1" vertex="1">
          <mxGeometry x="130" y="464" width="80" height="10" as="geometry" />
        </mxCell>
        <mxCell id="9lV6Q84r9_EHIq5W9f6j-20" value="(0,N)" style="text;html=1;align=center;verticalAlign=middle;whiteSpace=wrap;rounded=0;" parent="1" vertex="1">
          <mxGeometry x="220" y="410.5" width="80" height="10" as="geometry" />
        </mxCell>
        <mxCell id="9lV6Q84r9_EHIq5W9f6j-21" value="(0,N)" style="text;html=1;align=center;verticalAlign=middle;whiteSpace=wrap;rounded=0;" parent="1" vertex="1">
          <mxGeometry x="130" y="410.5" width="80" height="10" as="geometry" />
        </mxCell>
        <mxCell id="9lV6Q84r9_EHIq5W9f6j-22" value="" style="endArrow=oval;html=1;rounded=0;endFill=0;exitX=0;exitY=0;exitDx=0;exitDy=0;entryX=1;entryY=0.5;entryDx=0;entryDy=0;" parent="1" source="Gm87zyLQmXBAuulPEe1k-79" target="9lV6Q84r9_EHIq5W9f6j-25" edge="1">
          <mxGeometry width="50" height="50" relative="1" as="geometry">
            <mxPoint x="319" y="360" as="sourcePoint" />
            <mxPoint x="339" y="420" as="targetPoint" />
          </mxGeometry>
        </mxCell>
        <mxCell id="9lV6Q84r9_EHIq5W9f6j-24" value="" style="endArrow=oval;html=1;rounded=0;endFill=0;exitX=0.128;exitY=0.373;exitDx=0;exitDy=0;exitPerimeter=0;entryX=1;entryY=0.5;entryDx=0;entryDy=0;" parent="1" source="Gm87zyLQmXBAuulPEe1k-79" target="9lV6Q84r9_EHIq5W9f6j-26" edge="1">
          <mxGeometry width="50" height="50" relative="1" as="geometry">
            <mxPoint x="142.87999999999988" y="419.08000000000004" as="sourcePoint" />
            <mxPoint x="362" y="410.5" as="targetPoint" />
          </mxGeometry>
        </mxCell>
        <mxCell id="9lV6Q84r9_EHIq5W9f6j-25" value="FBOspitante (0,1)" style="text;html=1;align=center;verticalAlign=middle;whiteSpace=wrap;rounded=0;" parent="1" vertex="1">
          <mxGeometry y="406" width="107" height="10" as="geometry" />
        </mxCell>
        <mxCell id="9lV6Q84r9_EHIq5W9f6j-26" value="FBOspite (0,1)" style="text;html=1;align=center;verticalAlign=middle;whiteSpace=wrap;rounded=0;" parent="1" vertex="1">
          <mxGeometry x="15" y="420.5" width="94" height="10" as="geometry" />
        </mxCell>
        <mxCell id="9lV6Q84r9_EHIq5W9f6j-27" value="PeriodoPren" style="rhombus;whiteSpace=wrap;html=1;" parent="1" vertex="1">
          <mxGeometry x="491" y="520" width="80" height="40" as="geometry" />
        </mxCell>
        <mxCell id="9lV6Q84r9_EHIq5W9f6j-28" value="" style="endArrow=none;html=1;rounded=0;" parent="1" source="9lV6Q84r9_EHIq5W9f6j-27" target="Gm87zyLQmXBAuulPEe1k-37" edge="1">
          <mxGeometry width="50" height="50" relative="1" as="geometry">
            <mxPoint x="489" y="550" as="sourcePoint" />
            <mxPoint x="369" y="540" as="targetPoint" />
          </mxGeometry>
        </mxCell>
        <mxCell id="9lV6Q84r9_EHIq5W9f6j-29" value="" style="endArrow=none;html=1;rounded=0;entryX=0;entryY=0.5;entryDx=0;entryDy=0;exitX=1;exitY=0.25;exitDx=0;exitDy=0;" parent="1" source="9lV6Q84r9_EHIq5W9f6j-2" target="9lV6Q84r9_EHIq5W9f6j-27" edge="1">
          <mxGeometry width="50" height="50" relative="1" as="geometry">
            <mxPoint x="319" y="590" as="sourcePoint" />
            <mxPoint x="369" y="540" as="targetPoint" />
            <Array as="points">
              <mxPoint x="379" y="560" />
              <mxPoint x="379" y="540" />
            </Array>
          </mxGeometry>
        </mxCell>
        <mxCell id="9lV6Q84r9_EHIq5W9f6j-30" value="PLPren" style="rhombus;whiteSpace=wrap;html=1;" parent="1" vertex="1">
          <mxGeometry x="491" y="580" width="80" height="40" as="geometry" />
        </mxCell>
        <mxCell id="9lV6Q84r9_EHIq5W9f6j-34" value="" style="endArrow=none;html=1;rounded=0;entryX=0;entryY=0.5;entryDx=0;entryDy=0;exitX=1;exitY=0.75;exitDx=0;exitDy=0;" parent="1" source="9lV6Q84r9_EHIq5W9f6j-2" target="9lV6Q84r9_EHIq5W9f6j-30" edge="1">
          <mxGeometry width="50" height="50" relative="1" as="geometry">
            <mxPoint x="479" y="660" as="sourcePoint" />
            <mxPoint x="529" y="610" as="targetPoint" />
            <Array as="points">
              <mxPoint x="379" y="583" />
              <mxPoint x="379" y="600" />
            </Array>
          </mxGeometry>
        </mxCell>
        <mxCell id="9lV6Q84r9_EHIq5W9f6j-36" value="" style="endArrow=none;html=1;rounded=0;exitX=1;exitY=0.5;exitDx=0;exitDy=0;" parent="1" source="9lV6Q84r9_EHIq5W9f6j-30" target="Gm87zyLQmXBAuulPEe1k-69" edge="1">
          <mxGeometry width="50" height="50" relative="1" as="geometry">
            <mxPoint x="729" y="620" as="sourcePoint" />
            <mxPoint x="779" y="570" as="targetPoint" />
            <Array as="points">
              <mxPoint x="1041" y="600" />
            </Array>
          </mxGeometry>
        </mxCell>
        <mxCell id="9lV6Q84r9_EHIq5W9f6j-37" value="(1,1)" style="text;html=1;align=center;verticalAlign=middle;whiteSpace=wrap;rounded=0;" parent="1" vertex="1">
          <mxGeometry x="442" y="520" width="80" height="10" as="geometry" />
        </mxCell>
        <mxCell id="9lV6Q84r9_EHIq5W9f6j-38" value="(1,N)" style="text;html=1;align=center;verticalAlign=middle;whiteSpace=wrap;rounded=0;" parent="1" vertex="1">
          <mxGeometry x="442" y="584" width="80" height="10" as="geometry" />
        </mxCell>
        <mxCell id="9lV6Q84r9_EHIq5W9f6j-39" value="(0,N)" style="text;html=1;align=center;verticalAlign=middle;whiteSpace=wrap;rounded=0;" parent="1" vertex="1">
          <mxGeometry x="519" y="510" width="80" height="10" as="geometry" />
        </mxCell>
        <mxCell id="9lV6Q84r9_EHIq5W9f6j-40" value="(0,N)" style="text;html=1;align=center;verticalAlign=middle;whiteSpace=wrap;rounded=0;" parent="1" vertex="1">
          <mxGeometry x="544" y="584" width="80" height="10" as="geometry" />
        </mxCell>
        <mxCell id="9lV6Q84r9_EHIq5W9f6j-41" value="" style="shape=flexArrow;endArrow=classic;html=1;rounded=0;" parent="1" edge="1">
          <mxGeometry width="50" height="50" relative="1" as="geometry">
            <mxPoint x="208.71" y="644" as="sourcePoint" />
            <mxPoint x="208.71" y="594" as="targetPoint" />
          </mxGeometry>
        </mxCell>
        <mxCell id="9lV6Q84r9_EHIq5W9f6j-42" value="PAccettata" style="rounded=0;whiteSpace=wrap;html=1;" parent="1" vertex="1">
          <mxGeometry x="89" y="680" width="80" height="44" as="geometry" />
        </mxCell>
        <mxCell id="9lV6Q84r9_EHIq5W9f6j-43" value="PRifiutata" style="rounded=0;whiteSpace=wrap;html=1;" parent="1" vertex="1">
          <mxGeometry x="249" y="680" width="80" height="44" as="geometry" />
        </mxCell>
        <mxCell id="9lV6Q84r9_EHIq5W9f6j-44" value="" style="endArrow=none;html=1;rounded=0;exitX=0.5;exitY=0;exitDx=0;exitDy=0;entryX=0.5;entryY=0;entryDx=0;entryDy=0;" parent="1" source="9lV6Q84r9_EHIq5W9f6j-42" target="9lV6Q84r9_EHIq5W9f6j-43" edge="1">
          <mxGeometry width="50" height="50" relative="1" as="geometry">
            <mxPoint x="129" y="674" as="sourcePoint" />
            <mxPoint x="289" y="674" as="targetPoint" />
            <Array as="points">
              <mxPoint x="129" y="644" />
              <mxPoint x="209" y="644" />
              <mxPoint x="289" y="644" />
            </Array>
          </mxGeometry>
        </mxCell>
        <mxCell id="9lV6Q84r9_EHIq5W9f6j-45" value="" style="endArrow=oval;html=1;rounded=0;endFill=0;exitX=1;exitY=0.25;exitDx=0;exitDy=0;" parent="1" source="9lV6Q84r9_EHIq5W9f6j-43" edge="1">
          <mxGeometry width="50" height="50" relative="1" as="geometry">
            <mxPoint x="339" y="680" as="sourcePoint" />
            <mxPoint x="359" y="691" as="targetPoint" />
          </mxGeometry>
        </mxCell>
        <mxCell id="9lV6Q84r9_EHIq5W9f6j-46" value="Motivazione" style="text;html=1;align=center;verticalAlign=middle;whiteSpace=wrap;rounded=0;" parent="1" vertex="1">
          <mxGeometry x="359" y="686" width="80" height="10" as="geometry" />
        </mxCell>
        <mxCell id="9lV6Q84r9_EHIq5W9f6j-50" value="" style="endArrow=oval;html=1;rounded=0;endFill=1;" parent="1" edge="1">
          <mxGeometry width="50" height="50" relative="1" as="geometry">
            <mxPoint x="269" y="570" as="sourcePoint" />
            <mxPoint x="219" y="530" as="targetPoint" />
            <Array as="points">
              <mxPoint x="269" y="530" />
            </Array>
          </mxGeometry>
        </mxCell>
        <mxCell id="TgXjLWqaWswxCfHhbkA4-1" value="" style="endArrow=oval;html=1;rounded=0;endFill=0;" parent="1" edge="1">
          <mxGeometry width="50" height="50" relative="1" as="geometry">
            <mxPoint x="169" y="571.9300000000001" as="sourcePoint" />
            <mxPoint x="139" y="571.9300000000001" as="targetPoint" />
          </mxGeometry>
        </mxCell>
        <mxCell id="TgXjLWqaWswxCfHhbkA4-2" value="Istante" style="text;html=1;align=center;verticalAlign=middle;whiteSpace=wrap;rounded=0;" parent="1" vertex="1">
          <mxGeometry x="73" y="567" width="80" height="10" as="geometry" />
        </mxCell>
      </root>
    </mxGraphModel>
  </diagram>
</mxfile>
